<svg version="1.0" xmlns="http://www.w3.org/2000/svg" width="100" height="100" xml:space="preserve"><path fill="#FFB74D" d="M50 10c-9.206 0-16.667 7.461-16.667 16.667 0 9.206 7.461 16.667 16.667 16.667 9.212 0 16.667-7.461 16.667-16.667C66.667 17.461 59.212 10 50 10zm0 26.667c-5.524 0-10-4.475-10-10 0-5.523 4.476-10 10-10 5.527 0 10 4.477 10 10 0 5.524-4.473 10-10 10z"/><path fill="#263238" d="M40 70.611V60.004c0-2.732-1.399-6.117-3.333-8.047l-7.666-7.67C29.622 42.984 30 41.542 30 40c0-5.523-4.476-10-10-10s-10 4.477-10 10 4.476 10 10 10c1.543 0 2.981-.377 4.284-1l7.669 7.67c.671.67 1.38 2.383 1.38 3.334v10.607C29.46 71.989 26.667 75.65 26.667 80c0 5.523 4.476 10 10 10 5.523 0 10-4.477 10-10 0-4.35-2.793-8.011-6.667-9.389zM20 43.333c-1.836 0-3.333-1.495-3.333-3.333s1.497-3.333 3.333-3.333 3.333 1.495 3.333 3.333-1.497 3.333-3.333 3.333zm16.667 40c-1.836 0-3.334-1.494-3.334-3.333s1.498-3.333 3.334-3.333S40 78.161 40 80s-1.497 3.333-3.333 3.333zM80 30c-5.523 0-10 4.477-10 10 0 1.542.378 2.984.999 4.287l-7.666 7.67C61.398 53.887 60 57.271 60 60.004v10.607c-3.877 1.378-6.667 5.039-6.667 9.389 0 5.523 4.478 10 10 10 5.524 0 10-4.477 10-10 0-4.35-2.789-8.011-6.666-9.389V60.004c0-.951.709-2.664 1.38-3.334L75.713 49c1.307.623 2.747 1 4.287 1 5.523 0 10-4.477 10-10s-4.477-10-10-10zM63.333 83.333C61.494 83.333 60 81.839 60 80s1.494-3.333 3.333-3.333c1.84 0 3.334 1.494 3.334 3.333s-1.494 3.333-3.334 3.333zm16.667-40c-1.839 0-3.333-1.495-3.333-3.333s1.494-3.333 3.333-3.333 3.333 1.495 3.333 3.333-1.494 3.333-3.333 3.333z"/></svg>